<?xml version="1.0" standalone="no"?>
<!DOCTYPE svg PUBLIC "-//W3C//DTD SVG 20010904//EN"
 "http://www.w3.org/TR/2001/REC-SVG-20010904/DTD/svg10.dtd">
<svg version="1.0" xmlns="http://www.w3.org/2000/svg"
 width="577.000000pt" height="577.000000pt" viewBox="0 0 577.000000 577.000000"
 preserveAspectRatio="xMidYMid meet">
<metadata>
Created by potrace 1.14, written by Peter Selinger 2001-2017
</metadata>
<g transform="translate(0.000000,577.000000) scale(0.100000,-0.100000)"
fill="#000000" stroke="none">
<path d="M2388 4062 c-91 -3 -109 -13 -60 -34 57 -26 99 -60 123 -101 13 -23
22 -46 21 -51 -2 -4 2 -14 8 -20 5 -7 7 -15 4 -19 -9 -8 -10 -126 -2 -120 5 2
4 -6 -1 -19 -5 -13 -5 -32 -2 -43 4 -11 6 -31 4 -45 -6 -51 -5 -138 1 -148 3
-6 2 -13 -4 -17 -6 -4 -8 -10 -5 -15 8 -13 13 -80 6 -80 -7 0 -4 -98 3 -117 9
-22 -21 -14 -120 32 -301 140 -435 315 -401 522 4 23 10 50 14 60 21 57 -109
-107 -140 -177 -51 -117 -62 -270 -25 -369 47 -127 147 -229 323 -328 79 -45
531 -265 545 -265 3 0 16 -9 29 -19 13 -11 30 -19 37 -19 7 0 19 -6 26 -12 7
-7 26 -20 42 -28 54 -27 189 -171 226 -240 28 -53 35 -77 37 -134 1 -39 -1
-75 -5 -80 -3 -6 -7 -17 -8 -24 -3 -14 -16 -32 -69 -91 l-30 -34 42 23 c99 55
196 184 228 305 14 53 15 59 20 100 2 22 5 42 6 45 1 3 1 28 0 55 -5 186 -139
363 -372 489 -46 25 -91 50 -99 54 -12 8 -14 73 -15 453 0 244 1 451 3 459 3
13 23 16 135 14 73 -1 146 -4 162 -8 17 -3 41 -8 54 -11 51 -10 98 -29 146
-60 54 -34 135 -119 135 -141 0 -8 4 -14 8 -14 26 0 47 -197 29 -266 -31 -118
-172 -231 -351 -279 -61 -17 -82 -35 -45 -41 67 -10 78 -13 134 -33 38 -14
160 -76 180 -91 24 -19 105 -100 125 -126 113 -145 146 -418 73 -608 -57 -151
-193 -286 -384 -382 -71 -36 -209 -87 -209 -78 0 3 -8 0 -17 -5 -10 -5 -36
-12 -58 -15 -79 -13 -99 -17 -105 -22 -6 -7 622 -3 634 4 5 3 21 7 35 8 51 6
95 16 123 28 9 4 23 8 30 10 19 2 127 56 163 80 56 38 150 141 182 198 36 62
70 158 81 221 9 56 9 222 0 272 -19 100 -88 254 -140 310 -13 13 -28 30 -34
37 -63 74 -175 147 -289 186 -51 18 -72 24 -115 31 -3 1 15 13 40 27 55 31
133 111 162 167 12 23 23 44 23 47 1 3 7 25 14 50 28 97 5 257 -47 322 -47 59
-106 118 -118 118 -8 0 -14 3 -14 8 0 11 -115 63 -152 69 -17 2 -41 8 -52 12
-12 5 -91 9 -176 10 -303 5 -666 6 -752 3z"/>
<path d="M2475 2720 c-3 -5 -3 -10 2 -10 4 0 7 -21 5 -47 -5 -95 -4 -151 2
-161 3 -6 2 -13 -3 -17 -6 -3 -7 -16 -3 -28 4 -12 6 -33 5 -47 -7 -65 -7 -138
-1 -133 5 2 4 -6 -1 -19 -4 -13 -5 -31 -2 -42 4 -10 6 -32 4 -50 -6 -58 -6
-134 1 -144 3 -6 2 -13 -3 -17 -6 -3 -7 -15 -3 -28 5 -12 7 -33 5 -47 -2 -14
-3 -37 -4 -52 0 -26 -1 -27 -38 -13 -80 28 -148 69 -193 117 -27 28 -48 57
-48 64 0 8 -4 14 -10 14 -5 0 -10 5 -10 11 0 6 -14 31 -32 55 -66 93 -160 119
-255 73 -115 -55 -139 -219 -46 -305 58 -54 62 -54 512 -54 l416 0 0 374 0
374 -40 20 c-57 30 -247 122 -251 122 -1 0 -6 -4 -9 -10z"/>
<path d="M3877 1942 c-10 -10 -17 -28 -17 -40 0 -24 32 -62 52 -62 6 0 3 7 -8
15 -14 11 -15 15 -4 14 27 -3 40 1 40 10 0 5 -8 7 -18 4 -13 -3 -18 2 -19 17
-2 17 2 21 18 17 22 -6 25 3 7 21 -8 8 -8 12 -1 12 14 0 36 -27 39 -48 2 -9
-7 -24 -18 -34 -12 -10 -19 -20 -16 -23 9 -9 48 36 48 55 0 20 -36 60 -54 60
-13 0 -36 -47 -36 -73 0 -10 -4 -15 -10 -12 -15 9 -12 42 6 60 9 9 14 18 12
21 -3 2 -12 -4 -21 -14z"/>
</g>
</svg>
